<svg
  viewBox="0 0 120 120"
  fill="none"
  xmlns="http://www.w3.org/2000/svg"
>
  <!-- Background Rounded Rect -->
  <rect width="120" height="120" rx="28" fill="#0A1F44" />
  
  <!-- Centered logo content -->
  <g transform="translate(10, 10)">
    <!-- Hexagon -->
    <path
      d="M 50 8 L 81 26 M 83 45 L 83 74 L 50 93 L 19 75 M 17 55 L 17 26 L 50 8"
      stroke="#FFFFFF"
      strokeWidth="7"
      strokeLinecap="round"
      strokeLinejoin="round"
    />
    
    <!-- Rising bar charts -->
    <rect x="25" y="58" width="7" height="15" rx="1.5" fill="#94D0E1" />
    <rect x="36" y="47" width="7" height="26" rx="1.5" fill="#5CBBD2" />
    <rect x="47" y="37" width="7" height="36" rx="1.5" fill="#49B4CA" />
    <rect x="58" y="27" width="7" height="46" rx="1.5" fill="#8EC4D1" />

    <!-- Swooping arrow -->
    <path
      d="M 10 74 C 20 86, 50 90, 71 72 C 81 63, 85 49, 87 27"
      stroke="#FFFFFF"
      strokeWidth="7.5"
      strokeLinecap="round"
      fill="none"
    />
    <!-- Arrowhead -->
    <path
      d="M 87 27 L 76 32 M 87 27 L 92 38"
      stroke="#FFFFFF"
      strokeWidth="7"
      strokeLinecap="round"
      strokeLinejoin="round"
    />
  </g>
</svg>
